<?xml version="1.0" encoding="utf-8"?>
<!-- Generator: Adobe Illustrator 22.1.0, SVG Export Plug-In . SVG Version: 6.00 Build 0)  -->
<svg version="1.1" id="Layer_1" xmlns="http://www.w3.org/2000/svg" xmlns:xlink="http://www.w3.org/1999/xlink" x="0px" y="0px"
	 viewBox="0 0 317.5 87.9" style="enable-background:new 0 0 317.5 87.9;" xml:space="preserve">
<style type="text/css">
	.st0{fill:#00AEEF;}
</style>
<g>
	<path class="st0" d="M116.9,66.2V40.1l-8.6,17h-5.9l-8.6-17v26.1H85V21.4h8.6l11.7,24.2L117,21.4h8.6v44.8H116.9z"/>
	<path class="st0" d="M151.5,66.2v-3c-2.1,2.3-5.2,3.4-8.2,3.4c-3.3,0-5.9-1.1-7.7-2.9c-2.6-2.6-3.3-5.7-3.3-9.3v-21h8.2v19.8
		c0,4.5,2.8,6,5.4,6c2.6,0,5.5-1.5,5.5-6V33.4h8.2v32.8H151.5z"/>
	<path class="st0" d="M184.8,66.2V46.4c0-4.5-2.8-6-5.4-6c-2.6,0-5.5,1.5-5.5,6v19.8h-8.2V33.4h8v3c2.1-2.3,5.2-3.4,8.2-3.4
		c3.3,0,5.9,1.1,7.7,2.9c2.6,2.6,3.3,5.7,3.3,9.3v21H184.8z"/>
	<path class="st0" d="M209.4,66.2c-6.7,0-9.5-4.7-9.5-9.4V40.6h-3.5v-6.2h3.5v-9.7h8.2v9.7h5.8v6.2h-5.8v15.7c0,1.9,0.9,3,2.8,3h3
		v6.9H209.4z"/>
	<path class="st0" d="M224.7,52.4c0,4.2,2.6,7.3,7.2,7.3c3.6,0,5.4-1,7.4-3.1l5,4.8c-3.3,3.3-6.5,5.2-12.5,5.2
		c-7.7,0-15.2-3.5-15.2-16.8c0-10.7,5.8-16.7,14.3-16.7c9.1,0,14.3,6.7,14.3,15.7v3.7H224.7z M236.4,43.3c-0.9-2-2.7-3.4-5.5-3.4
		c-2.8,0-4.6,1.4-5.5,3.4c-0.5,1.2-0.7,2.1-0.8,3.5h12.5C237.1,45.3,237,44.5,236.4,43.3z"/>
	<path class="st0" d="M267.8,42.4c-1.3-1.3-2.3-2-4.3-2c-2.5,0-5.3,1.9-5.3,6v19.8H250V33.4h8v3.1c1.6-1.9,4.7-3.5,8.2-3.5
		c3.2,0,5.5,0.8,7.7,3.1L267.8,42.4z"/>
	<path class="st0" d="M286.6,66.6c-5.2,0-9.8-0.6-14-4.7l5.4-5.4c2.7,2.7,6.2,3.1,8.8,3.1c2.8,0,5.8-0.9,5.8-3.4
		c0-1.6-0.9-2.8-3.5-3l-5.2-0.5c-5.9-0.6-9.6-3.1-9.6-9.2c0-6.8,6-10.5,12.7-10.5c5.1,0,9.4,0.9,12.5,3.8l-5,5.1
		c-1.9-1.7-4.8-2.2-7.6-2.2c-3.3,0-4.7,1.5-4.7,3.1c0,1.2,0.5,2.6,3.4,2.8l5.2,0.5c6.5,0.6,9.8,4.1,9.8,9.6
		C300.5,63.2,294.3,66.6,286.6,66.6z"/>
</g>
<g>
	<path class="st0" d="M60.4,22.6L43.9,44.1L27.4,22.7C21.1,27.6,17,35.3,17,43.9c0,8.2,3.7,15.6,9.5,20.6l5.3-6
		C27.6,55,25,49.8,25,43.9c0-3.2,0.8-6.3,2.2-8.9l16.7,22l16.7-22c1.4,2.7,2.3,5.7,2.3,9c0,5.8-2.6,11-6.7,14.5l5.2,6.1
		c5.8-4.9,9.5-12.3,9.5-20.6C70.9,35.3,66.8,27.6,60.4,22.6z"/>
	<path class="st0" d="M43.9,25c3.6,0,6.9,1,9.8,2.7l4.6-6.6c-4.2-2.6-9.1-4.2-14.4-4.2c-5.3,0-10.2,1.5-14.4,4.2l4.5,6.6
		C36.9,26,40.3,25,43.9,25z"/>
	<path class="st0" d="M43.9,62.8c-3.9,0-7.4-1.2-10.4-3.1l-4.9,6.4c4.3,3,9.6,4.8,15.3,4.8h0c5.7,0,11-1.8,15.3-4.8l-4.9-6.4
		C51.4,61.7,47.8,62.8,43.9,62.8z"/>
</g>
</svg>
